<svg xmlns="http://www.w3.org/2000/svg" version="1.1" xmlns:xlink="http://www.w3.org/1999/xlink" xmlns:svgjs="http://svgjs.com/svgjs" width="1440" height="560" preserveAspectRatio="none" viewBox="0 0 1440 560"><g mask="url(&quot;#SvgjsMask1038&quot;)" fill="none"><rect width="1440" height="560" x="0" y="0" fill="rgba(37, 158, 235, 1)"></rect><path d="M0,625.571C114.555,638.887,210.155,537.942,296.806,461.839C373.893,394.135,416.237,302.23,468.605,214.005C527.874,114.155,651.309,23.162,624.215,-89.749C596.527,-205.134,429.983,-216.065,345.429,-299.316C270.601,-372.991,255.272,-501.298,160.433,-546.385C62.502,-592.942,-58.352,-581.055,-158.188,-538.738C-253.448,-498.36,-314.24,-407.921,-370.731,-321.24C-421.152,-243.873,-437.697,-154.964,-465.655,-66.951C-499.771,40.45,-599.433,149.868,-552.997,252.545C-506.598,355.139,-348.889,334.666,-255.543,397.633C-158.96,462.784,-115.724,612.119,0,625.571" fill="#0f69a2"></path><path d="M1440 1249.653C1566.913 1255.153 1657.882 1133.9940000000001 1764.3519999999999 1064.702 1870.112 995.8720000000001 2007.9940000000001 958.087 2062.712 844.383 2117.629 730.264 2082.341 594.6659999999999 2049.393 472.382 2019.325 360.78700000000003 1953.578 267.686 1882.7269999999999 176.375 1808.026 80.10300000000001 1746.212-53.620000000000005 1625.961-73.32500000000005 1504.691-93.197 1409.68 26.785999999999945 1299.285 80.769 1210.25 124.30700000000002 1115.371 149.08300000000003 1039.859 213.276 954.431 285.899 856.42 362.858 837.465 473.369 818.422 584.39 889.013 687.979 941.327 787.736 991.077 882.6030000000001 1054.6399999999999 964.5550000000001 1133.226 1037.349 1226.344 1123.603 1313.191 1244.1570000000002 1440 1249.653" fill="#7cc5f3"></path></g><defs><mask id="SvgjsMask1038"><rect width="1440" height="560" fill="#ffffff"></rect></mask></defs></svg>